<?xml version="1.0" standalone="no"?>
<!DOCTYPE svg PUBLIC "-//W3C//DTD SVG 20010904//EN"
 "http://www.w3.org/TR/2001/REC-SVG-20010904/DTD/svg10.dtd">
<svg version="1.0" xmlns="http://www.w3.org/2000/svg"
 width="417.000000pt" height="240.000000pt" viewBox="0 0 417.000000 240.000000"
 preserveAspectRatio="xMidYMid meet">
<metadata>
Created by potrace 1.15, written by Peter Selinger 2001-2017
</metadata>
<g transform="translate(0.000000,240.000000) scale(0.100000,-0.100000)"
fill="#000000" stroke="none">
<path d="M1449 2156 c-14 -9 -31 -28 -37 -43 -6 -15 -38 -174 -72 -353 -33
-179 -76 -404 -95 -500 -91 -465 -155 -810 -155 -833 0 -19 8 -28 38 -40 l37
-15 -35 -9 c-30 -8 -35 -13 -36 -41 -1 -28 2 -32 25 -32 14 0 89 -5 166 -10
167 -12 837 -50 877 -50 15 0 28 -5 28 -11 0 -5 -5 -7 -10 -4 -6 4 -17 2 -25
-5 -7 -6 -16 -7 -19 -2 -3 5 -90 12 -193 16 -103 4 -278 14 -388 21 -149 10
-212 11 -248 2 -48 -11 -58 -27 -21 -34 55 -11 180 -22 370 -34 207 -12 247
-11 438 17 25 4 36 3 32 -4 -4 -7 15 -13 49 -17 30 -4 55 -10 55 -14 0 -4 12
-6 28 -6 15 1 38 -3 52 -7 13 -5 155 -11 315 -13 325 -4 309 -5 787 90 125 25
230 45 233 45 3 0 5 -7 5 -15 0 -31 18 -14 29 28 6 23 74 431 151 906 152 935
149 906 90 921 -14 4 -180 10 -370 14 -609 12 -1669 35 -1875 41 -165 4 -205
3 -226 -9z m1176 -457 c330 -17 601 -33 603 -34 3 -3 -154 -909 -179 -1032
l-10 -53 -58 0 c-71 0 -1204 60 -1208 64 -2 1 24 155 58 342 60 337 129 734
129 740 0 7 64 4 665 -27z"/>
<path d="M2355 1572 c-9 -24 -5 -42 9 -42 26 0 26 -15 6 -131 -29 -162 -27
-157 -53 -161 -17 -2 -23 -11 -25 -34 l-3 -31 118 -5 c82 -3 132 -1 164 8 108
32 172 116 172 226 0 50 -4 64 -29 96 -48 59 -87 73 -229 81 -99 5 -126 3
-130 -7z m227 -62 c54 -15 88 -61 88 -117 0 -57 -22 -103 -63 -134 -26 -20
-46 -25 -114 -27 -64 -3 -83 -1 -83 9 0 15 40 248 45 267 5 15 75 16 127 2z"/>
<path d="M1996 989 c-10 -29 -42 -229 -38 -234 13 -13 139 -4 172 13 69 34 97
110 65 173 -19 36 -44 46 -130 55 -50 5 -66 4 -69 -7z m147 -61 c25 -30 16
-85 -18 -115 -30 -26 -115 -33 -115 -10 0 17 19 128 26 146 7 22 85 7 107 -21z"/>
<path d="M2355 958 c3 -13 9 -43 14 -68 33 -164 31 -160 66 -160 35 0 38 4
146 198 24 42 24 42 -6 42 -19 0 -31 -13 -61 -67 -53 -97 -65 -115 -71 -109
-4 3 -14 45 -22 94 -16 83 -18 87 -44 90 -24 3 -27 1 -22 -20z"/>
<path d="M2735 948 c-2 -7 -11 -59 -21 -116 -12 -74 -14 -106 -6 -114 24 -24
39 1 52 81 7 45 16 81 20 81 4 0 13 -33 20 -72 7 -40 15 -79 17 -85 7 -18 30
-16 37 3 11 30 88 156 92 151 2 -2 -3 -39 -11 -83 -19 -99 -19 -94 8 -94 22 0
25 7 41 103 10 56 20 112 23 125 5 20 2 22 -33 22 -38 0 -40 -3 -78 -70 -22
-39 -43 -70 -47 -70 -3 0 -15 34 -24 75 l-18 75 -34 0 c-18 0 -35 -6 -38 -12z"/>
<path d="M425 1464 c-11 -3 -37 -10 -59 -16 l-38 -12 7 -60 c3 -33 19 -139 35
-236 16 -96 41 -252 56 -347 25 -153 30 -172 49 -177 57 -14 275 -18 383 -7
151 17 192 29 99 30 l-69 1 6 28 c3 15 10 61 17 102 11 73 13 77 74 140 78 81
118 144 145 226 20 59 20 68 8 107 -16 46 -65 87 -105 87 -22 0 -23 3 -17 35
12 66 11 70 -18 68 -16 -1 -27 3 -25 10 1 6 -18 14 -43 18 -47 8 -470 10 -505
3z m635 -199 c18 -22 15 -91 -6 -145 -29 -75 -104 -175 -104 -139 0 48 50 283
61 290 20 13 35 11 49 -6z"/>
<path d="M3608 249 c-20 -11 -24 -35 -8 -41 6 -2 -169 -41 -388 -87 l-398 -84
-184 6 c-102 2 -329 14 -505 25 -176 12 -441 28 -590 37 -148 8 -425 24 -615
35 -423 25 -694 38 -699 34 -24 -20 136 -32 1329 -104 974 -58 1201 -70 1243
-64 44 6 449 93 675 145 72 17 139 37 147 45 8 9 15 26 15 40 0 27 1 27 -22
13z"/>
</g>
</svg>
